<svg id="_4" data-name="4" xmlns="http://www.w3.org/2000/svg" viewBox="0 0 74.55 84.62"><defs><style>.cls-1{fill:#f08000;}</style></defs><path class="cls-1" d="M161.3,414.31c-2.39-6.45-10.48-16.93-10.48-16.93s4.39-2.77,5.46-5.75a27,27,0,0,1-3.1,1.67s4.48-13.92,4.33-24.8a39,39,0,0,0-8.87,4.15s1.56-3.17,3.47-4.15A108.77,108.77,0,0,0,133,381.27s-6.63-1.79-9-1.79-9,1.79-9,1.79A109.17,109.17,0,0,0,95.94,368.5c1.91,1,3.46,4.15,3.46,4.15a38.76,38.76,0,0,0-8.86-4.15c-.15,10.88,4.33,24.8,4.33,24.8a26.58,26.58,0,0,1-3.11-1.67c1.08,3,5.46,5.75,5.46,5.75s-8.08,10.48-10.47,16.93c0,0,7-1.74,8.45,1.16,0,0-2,8.68-1.17,13.31,0,0,6.51-6.18,14.59-4,0,0,8.9,6.45,9.79,7.46s2.36,2.71,3.35,3a6.18,6.18,0,0,0,4.53,0,13.9,13.9,0,0,0,3.34-3c.9-1,9.79-7.46,9.79-7.46,8.09-2.18,14.6,4,14.6,4,.83-4.63-1.17-13.31-1.17-13.31C154.31,412.57,161.3,414.31,161.3,414.31Zm-46.77-2.24-6-4.06,3-1.37,6,2.71ZM129,426.63l-5.41,2.15L119,426.51v-2l4.79-1.67,5.24,1.67Zm4.71-14.56-3-2.75,6.09-2.68,2.62,1.49Z" transform="translate(-86.75 -368.5)"/><path class="cls-1" d="M109.55,450.48l1.56,2.51h-2.57l-1.36-2.26h-3.51V453H101.5v-8.46h6.65a3,3,0,0,1,3.24,3.11A2.89,2.89,0,0,1,109.55,450.48Zm-5.88-1.57h3.87c.65,0,1.67,0,1.67-1.27s-1-1.28-1.67-1.28h-3.87Z" transform="translate(-86.75 -368.5)"/><path class="cls-1" d="M112.58,448.75c0-2.8,1.6-4.34,5.32-4.34s5.32,1.55,5.32,4.34-1.61,4.37-5.32,4.37S112.58,451.57,112.58,448.75Zm8.47,0c0-1.72-.87-2.51-3.15-2.51s-3.14.78-3.14,2.51.88,2.54,3.14,2.54S121.05,450.48,121.05,448.75Zm-.8-7.6v1.42l-4.7,1v-1.43Z" transform="translate(-86.75 -368.5)"/><path class="cls-1" d="M131,448.29l5.12,4.7h-3l-3.72-3.51-2.6,1.89V453h-2.18v-8.46h2.18v4.39l6-4.39h3.3Z" transform="translate(-86.75 -368.5)"/><path class="cls-1" d="M145.41,451.19h-5.07l-.9,1.8H137l4.37-8.46h2.93l4.38,8.46h-2.4Zm-.81-1.62-1.72-3.43-1.73,3.43Z" transform="translate(-86.75 -368.5)"/></svg>