<svg id="Calque_3" data-name="Calque 3" xmlns="http://www.w3.org/2000/svg" viewBox="0 0 100.79 39.72"><defs><style>.cls-1{fill:#f08000;}</style></defs><path class="cls-1" d="M135.24,261l1.56,2.51h-2.56l-1.37-2.26h-3.5v2.26h-2.18v-8.46h6.65a3,3,0,0,1,3.24,3.1A2.89,2.89,0,0,1,135.24,261Zm-5.87-1.58h3.87c.65,0,1.67,0,1.67-1.27s-1-1.28-1.67-1.28h-3.87Z" transform="translate(-73.63 -237.8)"/><path class="cls-1" d="M138.28,259.28c0-2.81,1.6-4.34,5.32-4.34s5.32,1.54,5.32,4.34-1.61,4.36-5.32,4.36S138.28,262.09,138.28,259.28Zm8.46,0c0-1.72-.87-2.52-3.14-2.52s-3.14.79-3.14,2.52.88,2.54,3.14,2.54S146.74,261,146.74,259.28Zm-.8-7.61v1.43l-4.7,1v-1.43Z" transform="translate(-73.63 -237.8)"/><path class="cls-1" d="M156.69,258.82l5.13,4.7h-3L155.09,260l-2.6,1.9v1.62h-2.18v-8.46h2.18v4.39l6-4.39h3.3Z" transform="translate(-73.63 -237.8)"/><path class="cls-1" d="M171.11,261.72H166l-.91,1.8h-2.39l4.36-8.46H170l4.38,8.46H172Zm-.81-1.62-1.72-3.43-1.73,3.43Z" transform="translate(-73.63 -237.8)"/><path class="cls-1" d="M117.7,264.88c-1.42-3.81-6.2-10-6.2-10s2.6-1.64,3.23-3.4a15.43,15.43,0,0,1-1.83,1s2.64-8.23,2.56-14.66a22.88,22.88,0,0,0-5.24,2.45,6.41,6.41,0,0,1,2-2.45A64.91,64.91,0,0,0,101,245.35a34.57,34.57,0,0,0-5.29-1.06,34.84,34.84,0,0,0-5.29,1.06,64.5,64.5,0,0,0-11.31-7.55,6.47,6.47,0,0,1,2,2.45,23.08,23.08,0,0,0-5.24-2.45c-.09,6.43,2.56,14.66,2.56,14.66a15,15,0,0,1-1.84-1c.64,1.76,3.23,3.4,3.23,3.4s-4.78,6.2-6.19,10c0,0,4.13-1,5,.68,0,0-1.18,5.13-.69,7.87,0,0,3.85-3.65,8.63-2.36,0,0,5.26,3.81,5.79,4.41a7.1,7.1,0,0,0,2,1.8,3.68,3.68,0,0,0,2.68,0,8.37,8.37,0,0,0,2-1.8c.53-.6,5.78-4.41,5.78-4.41,4.79-1.29,8.63,2.36,8.63,2.36.5-2.74-.69-7.87-.69-7.87C113.57,263.85,117.7,264.88,117.7,264.88Zm-27.65-1.33-3.53-2.4,1.77-.81L91.82,262Zm8.58,8.61-3.2,1.27-2.73-1.34v-1.2l2.83-1,3.1,1Zm2.78-8.61-1.76-1.62,3.6-1.59,1.55.88Z" transform="translate(-73.63 -237.8)"/></svg>